<?xml version="1.0" encoding="UTF-8"?>
<svg id="Layer_1" data-name="Layer 1" xmlns="http://www.w3.org/2000/svg" version="1.1" xmlns:xlink="http://www.w3.org/1999/xlink" viewBox="0 0 49.1 221.1">
  <defs>
    <style>
      .cls-1 {
        stroke: #000;
        stroke-miterlimit: 10;
        stroke-width: 1.4px;
      }

      .cls-1, .cls-2 {
        fill: none;
      }

      .cls-3 {
        fill: #242424;
      }

      .cls-3, .cls-4, .cls-2, .cls-5 {
        stroke-width: 0px;
      }

      .cls-4 {
        fill: #000;
      }

      .cls-6 {
        clip-path: url(#clippath-2);
      }

      .cls-7 {
        clip-path: url(#clippath-1);
      }

      .cls-8 {
        clip-path: url(#clippath);
      }

      .cls-9 {
        clip-path: url(#clippath-3);
      }

      .cls-5 {
        fill: #fff;
      }
    </style>
    <clipPath id="clippath">
      <rect class="cls-2" width="49.1" height="221.1"/>
    </clipPath>
    <clipPath id="clippath-1">
      <rect class="cls-2" width="49.1" height="221.1"/>
    </clipPath>
    <clipPath id="clippath-2">
      <rect class="cls-2" width="49.1" height="221.1"/>
    </clipPath>
    <clipPath id="clippath-3">
      <rect class="cls-2" width="49.1" height="221.1"/>
    </clipPath>
  </defs>
  <g class="cls-8">
    <path class="cls-5" d="M95.4,47.7v219.7h-42.7c-2.8,0-5.1-2.3-5.1-5.1V52.8c0-2.8,2.3-5.1,5.1-5.1h42.7Z"/>
    <path class="cls-1" d="M48.4.7v219.7H5.8c-2.8,0-5.1-2.3-5.1-5.1V5.8C.7,3,3,.7,5.8.7h42.7Z"/>
    <path class="cls-3" d="M17.4,198.8c-.1-.4-.2-.8-.3-1.2,0-.4-.1-.9-.1-1.5,0-1,.2-1.9.6-2.8.4-.8.9-1.5,1.5-2,.6-.5,1.4-1,2.3-1.3.9-.3,1.8-.4,2.8-.4s2.5.2,3.4.6c1,.4,1.8,1,2.4,1.7.6.7,1.1,1.6,1.4,2.5.3,1,.5,2,.5,3.2s-.1,2.4-.3,3.4c-.2,1-.5,2-.8,2.8H12.2v-5.1h5.2ZM27.9,198.8c0-.2.1-.4.1-.6,0-.2,0-.4,0-.7,0-.9-.3-1.6-.9-2.1-.6-.5-1.5-.8-2.8-.8s-2.1.3-2.7.8c-.6.5-.9,1.2-.9,2s0,.5,0,.8c0,.2.1.5.2.7h6.8ZM25.4,184c.8,0,1.5-.3,2-.8.5-.5.7-1.2.7-2s-.1-1.2-.3-1.6c-.2-.5-.6-.9-1.1-1.3l2.4-3.1c.4.3.7.7,1.1,1.1.3.4.6.8.9,1.4.2.5.4,1.1.6,1.8.1.7.2,1.4.2,2.2s-.2,1.9-.5,2.8c-.3.9-.8,1.6-1.4,2.3-.6.7-1.4,1.2-2.3,1.6-.9.4-2,.6-3.2.6s-2.2-.2-3.1-.6c-.9-.4-1.7-.9-2.3-1.5-.6-.6-1.1-1.4-1.4-2.3-.3-.9-.5-1.8-.5-2.9,0-2.1.7-3.8,2-5,1.4-1.2,3.5-1.9,6.3-1.9v9.2ZM22.7,179.6c-.8,0-1.3.3-1.8.7-.4.4-.7.9-.7,1.4s.2,1.1.7,1.5c.4.4,1,.7,1.8.8v-4.4ZM20.9,173h6.2c.7,0,1.4,0,1.9-.2.6-.1,1.1-.4,1.5-.7.4-.3.7-.8.9-1.4.2-.6.3-1.3.3-2.1s-.1-1.8-.3-2.6c-.2-.7-.6-1.4-1-2.1l-3.1,1.3c.2.3.4.5.5.9s.2.7.2,1-.1.6-.4.7c-.3.1-.6.2-1.1.2h-5.7v-3.4l-3.5,1.3v2.1h-3.6v5.1h3.6v2h3.5v-2ZM31.5,155.9l-7.4-2.2,7.4-2.2v-3.9l-14.1-5v5.2l7.5,2.1-7.5,2.2v3.3l7.5,2.2-11.1,3.6v4.9l17.7-6.3v-3.9ZM31.5,134.7l-1.1.4c.4.4.7.9.9,1.6s.4,1.4.4,2.3,0,1.3-.3,1.8c-.2.6-.5,1-.9,1.5-.4.4-.8.7-1.3,1-.5.2-1.1.3-1.8.3s-1.3-.1-1.8-.4c-.5-.3-1-.6-1.3-1.1-.4-.5-.7-1-.9-1.6-.2-.6-.4-1.2-.5-1.9,0-.6-.2-1.2-.2-1.7,0-.5,0-1-.1-1.5h-.3c-.6,0-1,.2-1.3.6-.3.4-.4.8-.4,1.3s.1,1.1.3,1.6c.2.5.5,1,.9,1.4l-2.5,2.3c-.7-.8-1.2-1.6-1.6-2.6-.4-1-.6-2.1-.6-3.4s.4-3.3,1.3-4.4c.9-1.1,2.3-1.6,4.2-1.6h8.9v4.3ZM25.1,135.4c0,.3,0,.6,0,.9,0,.3,0,.6.1.9,0,.6.3,1,.6,1.3.3.3.7.4,1.1.4s.7-.1,1-.4c.3-.3.4-.7.4-1.2s0-.7-.2-1c-.1-.3-.3-.6-.5-.8h-2.6ZM36.4,130.4c.2-.6.5-1.1.6-1.8.2-.6.2-1.3.2-2,0-1.2-.2-2.2-.7-3-.5-.9-1.3-1.5-2.5-2l-16.7-7.1v5.2l8.2,2.8-8.2,2.9v5.5l13.5-6,1.8.8c.3.2.6.3.7.6.1.2.2.5.2.9s0,.6-.2,1c-.1.4-.3.7-.4,1l3.4,1.3Z"/>
    <path class="cls-4" d="M24.4,110.9c1.7,0,3-.4,4-1.2,1-.8,1.4-1.9,1.4-3.4s-.2-1.6-.6-2.2c-.4-.6-.9-1.1-1.5-1.4l1-1.5c.9.5,1.6,1.1,2.1,1.9.6.8.8,1.8.8,3.2s-.2,1.9-.5,2.8c-.3.8-.8,1.5-1.4,2.1-.6.6-1.3,1-2.2,1.3-.9.3-1.9.5-3.1.5s-2.1-.1-2.9-.4c-.9-.3-1.6-.7-2.2-1.2-.6-.5-1.1-1.2-1.4-1.9-.3-.7-.5-1.6-.5-2.5s.2-1.9.5-2.6c.3-.7.8-1.4,1.4-1.9.6-.5,1.4-.9,2.2-1.1.9-.2,1.8-.4,2.8-.4v9.9ZM22.7,103.5c-.6,0-1.1.1-1.6.3-.4.2-.8.5-1.1.8-.3.3-.5.7-.7,1.1s-.2.8-.2,1.3c0,.9.3,1.7.8,2.3.5.7,1.4,1.1,2.7,1.4v-7.2Z"/>
  </g>
  <polygon class="cls-4" points="31.4 100.9 24.4 96.4 17.8 100.7 17.8 98.3 22.6 95.2 17.8 92.1 17.8 89.7 24.4 94.1 31.4 89.6 31.4 91.9 26.3 95.3 31.4 98.6 31.4 100.9"/>
  <g class="cls-7">
    <path class="cls-4" d="M28.4,78c1.1.5,1.9,1.3,2.4,2.2.5.9.8,1.9.8,2.9s-.1,1.6-.4,2.3c-.3.8-.7,1.4-1.3,2-.6.6-1.3,1.1-2.2,1.4-.9.4-1.9.5-3.1.5s-2.4-.2-3.3-.5c-.9-.4-1.7-.8-2.2-1.4-.6-.6-1-1.3-1.3-2-.3-.7-.4-1.5-.4-2.2s.1-1.4.3-2c.2-.6.5-1.1.9-1.5.3-.4.7-.7,1.1-1,.4-.3.7-.4,1-.6l1,1.6c-.9.4-1.6.9-2,1.5-.4.6-.6,1.2-.6,1.9s.1,1,.4,1.5c.2.5.6.9,1,1.3s1,.7,1.7.9c.7.2,1.4.3,2.3.3s1.6-.1,2.3-.3c.7-.2,1.2-.5,1.7-.9.5-.4.8-.8,1-1.4.2-.5.4-1.1.4-1.7s-.2-1.3-.6-1.9c-.4-.6-1-1.1-1.9-1.5l1-1.5Z"/>
  </g>
  <rect class="cls-4" x="12.4" y="74" width="19" height="2.2"/>
  <g class="cls-6">
    <path class="cls-4" d="M26.5,68.8c1.2,0,2.1-.3,2.6-.8.5-.6.8-1.4.8-2.4s-.1-1.4-.4-2.1c-.3-.7-.6-1.3-1.1-1.7h-10.6v-2.2h13.6v2h-1.1c.4.7.8,1.3,1,1.9.2.6.4,1.5.4,2.4,0,1.8-.4,3.1-1.3,3.9-.9.8-2.2,1.2-4,1.2h-8.6v-2.2h8.7Z"/>
    <path class="cls-4" d="M28,55.7c.6-.3,1.1-.7,1.4-1.2.3-.5.5-1.2.5-2,0-1.9-.7-2.8-2-2.8s-.7,0-1,.2c-.3.1-.5.3-.7.6-.2.3-.4.6-.6,1.1-.2.4-.4,1-.6,1.6-.2.7-.5,1.3-.7,1.7-.3.5-.5.9-.8,1.2-.3.3-.6.5-1,.7-.4.1-.8.2-1.3.2-1.1,0-2-.4-2.6-1.2-.6-.8-.9-1.9-.9-3.2s.2-2,.6-2.8c.4-.7.9-1.4,1.6-1.9l1.2,1.5c-.5.4-.8.8-1.1,1.3-.3.5-.5,1.1-.5,1.7s.2,1.4.5,1.8c.3.4.7.6,1.2.6s.5,0,.8-.2c.2-.1.4-.3.6-.6.2-.3.4-.6.5-1,.2-.4.4-1,.6-1.6.4-1.3,1-2.2,1.6-2.8.7-.6,1.5-1,2.6-1s1.2.1,1.7.4c.5.2.9.6,1.3,1,.3.4.6.9.8,1.5.2.6.3,1.2.3,1.9,0,1.3-.2,2.4-.7,3.2-.5.8-1.1,1.4-1.9,1.8l-1.1-1.7Z"/>
    <path class="cls-4" d="M15.6,44.5c0,.4-.2.7-.5,1s-.7.4-1.2.4-.8-.1-1.1-.4c-.3-.3-.5-.6-.5-1s.2-.7.5-1c.3-.3.7-.4,1.1-.4s.8.1,1.2.4c.3.3.5.6.5,1M17.8,43.4h13.6v2.2h-13.6v-2.2Z"/>
  </g>
  <polygon class="cls-4" points="31.4 37.2 17.8 42.2 17.8 39.9 28.8 35.8 17.8 31.8 17.8 29.6 31.4 34.6 31.4 37.2"/>
  <g class="cls-9">
    <path class="cls-4" d="M24.4,27.1c1.7,0,3-.4,4-1.2,1-.8,1.4-1.9,1.4-3.4s-.2-1.6-.6-2.2c-.4-.6-.9-1.1-1.5-1.4l1-1.5c.9.5,1.6,1.1,2.1,1.9.6.8.8,1.8.8,3.2s-.2,1.9-.5,2.8c-.3.8-.8,1.5-1.4,2.1-.6.6-1.3,1-2.2,1.3-.9.3-1.9.5-3.1.5s-2.1-.1-2.9-.4c-.9-.3-1.6-.7-2.2-1.2-.6-.5-1.1-1.2-1.4-1.9-.3-.7-.5-1.6-.5-2.5s.2-1.9.5-2.6c.3-.7.8-1.4,1.4-1.9.6-.5,1.4-.9,2.2-1.1.9-.2,1.8-.4,2.8-.4v9.9ZM22.7,19.7c-.6,0-1.1.1-1.6.3-.4.2-.8.5-1.1.8-.3.3-.5.7-.7,1.1-.1.4-.2.8-.2,1.3,0,.9.3,1.7.8,2.3.5.7,1.4,1.1,2.7,1.4v-7.2Z"/>
  </g>
</svg>