<svg xmlns="http://www.w3.org/2000/svg" width="152" height="152" viewBox="0 0 152 152"><g fill="none" fill-rule="evenodd"><rect width="152" height="152" fill="#126E51"/><rect width="152" height="152" fill="#126E51"/><g transform="translate(32.933 37.24)"><path fill="#FFF" d="M79.30457,11.2800999 L84.9203836,11.2800999 L84.9203836,18.8841597 L79.30457,18.8841597 L79.30457,25.0950056 C79.30457,28.2760223 79.799884,29.7671686 82.2109343,29.7671686 C82.852243,29.7671686 83.7356895,29.6674491 84.7704719,29.4172568 L84.7704719,36.8715585 C82.1625068,37.667885 79.5534733,37.9652564 76.7952403,37.9652564 C73.3967669,37.9652564 70.7855969,36.8715585 69.2601296,34.9815342 C67.2899123,32.4967669 67.2404165,29.3682906 67.2404165,25.1950825 L67.2404165,18.8838022 L62.9549358,18.8838022 L62.9549358,11.2800999 L67.2400604,11.2800999 L67.2400604,5.51638346 L79.30457,1.68844081 L79.30457,11.2800999 Z"/><path fill="#FFF" fill-rule="nonzero" d="M.0703574592 0 12.1847189 0 12.1847189 14.3606823C13.9088816 12.0246008 16.2729287 10.9316177 19.473419 10.9316177 26.5160645 10.9316177 30.5042144 15.8003605 30.5042144 24.4480797 30.5042144 32.6987079 26.4662126 37.6192762 19.7689694 37.6192762 15.6814718 37.6192762 12.9225267 36.1274151 11.3479196 32.9485428L11.3479196 37.2704366.0703574592 37.2704366.0703574592 0ZM11.8396728 24.1989596C11.8396728 27.977936 12.6771842 29.8161348 14.8439603 29.8161348 16.9619528 29.8161348 17.8970315 27.977936 17.8970315 24.1989596 17.8970315 20.4239148 17.0107364 18.585716 14.8439603 18.585716 12.6771842 18.585716 11.8396728 20.4235573 11.8396728 24.1989596ZM61.4778959 27.0329239 44.6860043 27.0329239C44.9811986 29.8647436 47.149043 31.2068468 51.2361845 31.2068468 54.0909165 31.2068468 57.0467765 30.6603552 59.9004402 29.5662999L59.9004402 36.1763813C57.0955601 37.3176157 53.2548293 37.9656139 48.7731458 37.9656139 38.4327989 37.9656139 32.8675493 32.9960793 32.8675493 24.2507852 32.8675493 15.7027855 38.3334512 10.5856375 47.4445934 10.5856375 57.5403101 10.5856375 61.478252 15.3056945 61.478252 25.3441256L61.478252 27.0329239 61.4778959 27.0329239ZM50.9399219 22.0112064 50.9399219 21.2191689C50.9399219 18.2851277 49.8556437 16.5963295 47.7882152 16.5963295 45.6698667 16.5963295 44.5887932 18.2851277 44.5887932 21.2677777L44.5887932 22.010849 50.9399219 22.010849 50.9399219 22.0112064Z"/><path fill="#FFDF1B" d="M84.7549929 43.3309665 84.7549929 51.3021132 72.4300128 51.3021132 72.4300128 56.3451473C73.4296807 56.2962934 74.0965862 56.247786 74.3313148 56.247786 81.9948601 56.247786 86.1333333 60.1384236 86.1333333 66.7160229 86.1333333 73.4879981 81.0901192 77.52 71.2384197 77.52 67.8134525 77.52 64.4319792 76.9961204 61.0080476 76.1309568L61.0080476 68.5419789C63.6242364 69.2640457 65.9093889 69.599786 67.860053 69.599786 71.8576891 69.599786 73.9512615 68.2530135 73.9512615 65.7559234 73.9512615 62.9716004 71.762762 61.5783995 67.2887649 61.5783995 65.3829754 61.5783995 63.5306902 61.9137933 61.5793357 62.3950557L61.5793357 43.3309665 84.7549929 43.3309665ZM46.2529355 54.9515998C53.3451927 54.9515998 58.05668 59.3210744 58.05668 65.755577 58.05668 72.6709955 52.6800131 77.4728786 44.2076895 77.4728786 34.2144624 77.4728786 27.7887656 71.1825122 27.7887656 60.8601439 27.7887656 49.0919096 34.5965868 42.4678818 46.8722049 42.4678818 49.4908101 42.4678818 52.300305 42.7547682 55.2005846 43.3777415L55.2005846 51.0148803C52.5360692 50.1999565 49.966826 49.81363 47.2532938 49.81363 41.8283004 49.81363 39.3056578 52.0217547 39.1634399 57.0183603 41.1638112 55.4789442 43.3536915 54.9515998 46.2529355 54.9515998ZM47.2529486 65.5189303C47.2529486 62.7325284 45.6847541 60.9526544 43.400292 60.9526544 41.1154848 60.9526544 39.5918197 62.6815957 39.5918197 65.5189303 39.5918197 68.3011744 41.1154848 70.0301157 43.400292 70.0301157 45.7316998 70.0297692 47.2529486 68.3011744 47.2529486 65.5189303ZM8.70739739 69.9836872C11.8966003 69.9836872 13.5631738 68.92588 13.5631738 66.7156764 13.5631738 64.5543266 11.8465479 63.3551551 8.51581739 63.3551551 7.28107564 63.3551551 5.80401109 63.4521699 4.18610934 63.6929743L4.18610934 56.3936546C5.51784925 56.5374443 6.75569769 56.5838728 7.99423652 56.5838728 11.4202393 56.5838728 13.1316873 55.5769984 13.1316873 53.2735913 13.1316873 51.0148803 11.5655639 49.9574197 8.3269989 49.9574197 6.23135531 49.9574197 3.56649474 50.5336179.283400327 51.5425712L.283400327 43.9560186C3.18575106 42.9449864 6.70909715 42.4678818 10.848606 42.4678818 19.8435459 42.4678818 25.0300136 46.356094 25.0300136 52.4569351 25.0300136 56.201704 22.6036787 58.9371732 18.3671718 59.8515371 23.0779687 60.8099042 25.5063746 63.4528628 25.5063746 67.4845182 25.5063746 73.8258173 20.2239444 77.52 10.1361355 77.52 6.75569769 77.52 3.42600274 77.0428954 0 76.2262392L0 68.3985356C3.37767625 69.406796 6.23135531 69.9836872 8.70739739 69.9836872Z"/></g></g></svg>